<?xml version="1.0" encoding="UTF-8" standalone="no"?>
<svg
   width="64"
   height="64"
   version="1.1"
   id="svg900"
   sodipodi:docname="application-pgp-encrypted.svg"
   inkscape:version="1.1.1 (3bf5ae0d25, 2021-09-20)"
   xmlns:inkscape="http://www.inkscape.org/namespaces/inkscape"
   xmlns:sodipodi="http://sodipodi.sourceforge.net/DTD/sodipodi-0.dtd"
   xmlns="http://www.w3.org/2000/svg"
   xmlns:svg="http://www.w3.org/2000/svg">
  <defs
     id="defs904" />
  <sodipodi:namedview
     id="namedview902"
     pagecolor="#ffffff"
     bordercolor="#666666"
     borderopacity="1.0"
     inkscape:pageshadow="2"
     inkscape:pageopacity="0.0"
     inkscape:pagecheckerboard="0"
     showgrid="false"
     inkscape:zoom="4.5796213"
     inkscape:cx="59.175199"
     inkscape:cy="18.01459"
     inkscape:window-width="1920"
     inkscape:window-height="1043"
     inkscape:window-x="0"
     inkscape:window-y="0"
     inkscape:window-maximized="1"
     inkscape:current-layer="svg900" />
  <path
     style="opacity:0.2"
     d="M 12.75,5 C 11.2265,5 10,6.2488 10,7.8 v 50.4 c 0,1.55008 1.2265,2.8 2.75,2.8 h 38.5 C 52.7724,61 54,59.75008 54,58.2 V 23 L 40,19 36,5 Z"
     id="path888" />
  <path
     style="fill:#e4e4e4"
     d="M 12.75,4 C 11.2265,4 10,5.2488 10,6.8 v 50.4 c 0,1.55008 1.2265,2.8 2.75,2.8 h 38.5 C 52.7724,60 54,58.75008 54,57.2 V 22 L 40,18 36,4 Z"
     id="path890" />
  <path
     style="opacity:0.2"
     d="M 54,23 36,5 V 20.1875 C 36,21.74675 37.2555,23 38.8125,23 Z"
     id="path892" />
  <path
     style="fill:#fafafa"
     d="M 54,22 36,4 V 19.1875 C 36,20.74675 37.2555,22 38.8125,22 Z"
     id="path894" />
  <path
     style="opacity:0.2;fill:#ffffff"
     d="M 12.75 4 C 11.2265 4 10 5.2495812 10 6.8007812 L 10 7.8007812 C 10 6.2495813 11.2265 5 12.75 5 L 36 5 L 36 4 L 12.75 4 z"
     id="path896" />
  <path
     style="fill:#498cd9;fill-opacity:1"
     d="M 32 29 C 28.306714 29 25 32.017208 25 35.675781 L 25 39 L 23.666016 39 C 22.743159 39 22 39.566417 22 40.470703 L 22 50.367188 C 22 51.272902 22.743159 52 23.666016 52 L 40.333984 52 C 41.256841 52 42 51.272901 42 50.367188 L 42 40.470703 C 42 39.566217 41.256705 38.96692 40.333984 39 L 39 39 L 39 35.675781 C 39 32.018639 35.692857 29 32 29 z M 32 33 C 33.662 33 35 34.349047 35 36.023438 L 35 39 L 29 39 L 29 36.023438 C 29 34.349047 30.338 33 32 33 z"
     id="path898" />
</svg>
