<?xml version="1.0" encoding="UTF-8" standalone="no"?>
<svg
   width="64"
   height="64"
   version="1.1"
   id="svg900"
   sodipodi:docname="application-pgp-encrypted-alt.svg"
   inkscape:version="1.1.1 (3bf5ae0d25, 2021-09-20)"
   xmlns:inkscape="http://www.inkscape.org/namespaces/inkscape"
   xmlns:sodipodi="http://sodipodi.sourceforge.net/DTD/sodipodi-0.dtd"
   xmlns="http://www.w3.org/2000/svg"
   xmlns:svg="http://www.w3.org/2000/svg">
  <defs
     id="defs904">
    <style
       id="current-color-scheme"
       type="text/css">
   .ColorScheme-Text { color:#dfdfdf; } .ColorScheme-Highlight { color:#4285f4; } .ColorScheme-NeutralText { color:#ff9800; } .ColorScheme-PositiveText { color:#4caf50; } .ColorScheme-NegativeText { color:#f44336; }
  </style>
  </defs>
  <sodipodi:namedview
     id="namedview902"
     pagecolor="#ffffff"
     bordercolor="#666666"
     borderopacity="1.0"
     inkscape:pageshadow="2"
     inkscape:pageopacity="0.0"
     inkscape:pagecheckerboard="0"
     showgrid="false"
     inkscape:zoom="9.1592426"
     inkscape:cx="29.260061"
     inkscape:cy="24.292402"
     inkscape:window-width="1920"
     inkscape:window-height="1011"
     inkscape:window-x="0"
     inkscape:window-y="0"
     inkscape:window-maximized="1"
     inkscape:current-layer="svg900">
    <sodipodi:guide
       position="0,64"
       orientation="0,64"
       id="guide3104" />
    <sodipodi:guide
       position="64,64"
       orientation="64,0"
       id="guide3106" />
    <sodipodi:guide
       position="64,0"
       orientation="0,-64"
       id="guide3108" />
    <sodipodi:guide
       position="0,0"
       orientation="-64,0"
       id="guide3110" />
  </sodipodi:namedview>
  <path
     style="opacity:0.2"
     d="M 12.75,5 C 11.2265,5 10,6.2488 10,7.8 v 50.4 c 0,1.55008 1.2265,2.8 2.75,2.8 h 38.5 C 52.7724,61 54,59.75008 54,58.2 V 23 L 40,19 36,5 Z"
     id="path888" />
  <path
     style="fill:#e4e4e4"
     d="M 12.75,4 C 11.2265,4 10,5.2488 10,6.8 v 50.4 c 0,1.55008 1.2265,2.8 2.75,2.8 h 38.5 C 52.7724,60 54,58.75008 54,57.2 V 22 L 40,18 36,4 Z"
     id="path890" />
  <path
     style="opacity:0.2"
     d="M 54,23 36,5 V 20.1875 C 36,21.74675 37.2555,23 38.8125,23 Z"
     id="path892" />
  <path
     style="fill:#fafafa"
     d="M 54,22 36,4 V 19.1875 C 36,20.74675 37.2555,22 38.8125,22 Z"
     id="path894" />
  <path
     style="opacity:0.2;fill:#ffffff"
     d="M 12.75 4 C 11.2265 4 10 5.2495812 10 6.8007812 L 10 7.8007812 C 10 6.2495813 11.2265 5 12.75 5 L 36 5 L 36 4 L 12.75 4 z"
     id="path896" />
  <path
     style="fill:#2c7be6;fill-opacity:1;fill-rule:evenodd;stroke-width:1.68859"
     class="ColorScheme-Text"
     d="m 30.151535,33.289646 h 3.37717 v 5.910049 l 3.37717,3.37717 -2.532877,2.532877 -4.221463,-4.221463 z M 31.840121,28.22389 A 11.820097,11.820097 0 0 0 20.020023,40.043988 11.820097,11.820097 0 0 0 31.840121,51.864084 11.820097,11.820097 0 0 0 43.660217,40.043988 11.820097,11.820097 0 0 0 31.840121,28.22389 Z m 0,3.37717 a 8.4429264,8.4429264 0 0 1 8.442926,8.442928 8.4429264,8.4429264 0 0 1 -8.442926,8.442926 8.4429264,8.4429264 0 0 1 -8.442928,-8.442926 8.4429264,8.4429264 0 0 1 8.442928,-8.442928 z"
     id="path1141" />
</svg>
